<?xml version="1.0" encoding="UTF-8"?>
<svg id="Laag_1" xmlns="http://www.w3.org/2000/svg" version="1.1" viewBox="0 0 1080 1080">
  <!-- Generator: Adobe Illustrator 29.7.1, SVG Export Plug-In . SVG Version: 2.1.1 Build 8)  -->
  <path d="M819.5,459.9c-5-20.7-10.3-36.9-15.8-48.7-5-10.7-10.2-17.5-15.5-20.3s-12.3-4.2-21.2-4.2h-399.2c-39.6,0-68.6,13.7-87.1,41s-27.8,66.6-27.8,117.7,2.5,54,7.6,74.7c5,20.7,10.3,36.9,15.8,48.7,5,10.7,10.2,17.5,15.5,20.3s12.3,4.2,21.2,4.2h399.2c39.6,0,68.6-13.7,87.2-41,18.5-27.3,27.8-66.6,27.8-117.7s-2.5-54-7.6-74.7h0ZM778.5,624.4c-12.1,22.2-32.5,33.4-61.1,33.4h-406.6c-6.3,0-11.8-4.1-13.6-10.1-2.8-9.1-5.5-20.1-8.1-33.1-3.7-18.3-5.6-40.6-5.6-66.7,0-39.3,6-70,18.2-92.3,12.1-22.2,32.5-33.4,61.1-33.4h406.6c6.3,0,11.8,4.1,13.6,10.1,2.8,9.1,5.5,20.1,8.2,33.1,3.7,18.3,5.6,40.6,5.6,66.7,0,39.3-6,70-18.2,92.3h0Z"/>
  <g>
    <path d="M357.1,477.9c.9-.4,2.3-.8,4.2-1.2,1.9-.5,3.9-.7,6.1-.7,7.6,0,11.4,3.4,11.4,10v69.7c0,11.8,3.1,20.1,9.2,25.1s14.7,7.5,25.5,7.5,13.4-.8,18.5-2.3,9-3.1,11.9-4.8v-103.4c.9-.4,2.3-.8,4.2-1.2s3.8-.7,5.8-.7c7.8,0,11.7,3.4,11.7,10v94.4c0,3.8-.5,6.8-1.5,9.1s-3.4,4.5-7.2,6.7c-4.2,2.4-9.9,4.6-17.2,6.8s-16.1,3.3-26.5,3.3c-18.1,0-32-4-41.7-11.9s-14.5-20.4-14.5-37.5v-79h.1Z"/>
    <path d="M599.3,602.2c-.9.4-2.3.8-4.2,1.2-1.9.5-3.9.7-6.1.7-7.6,0-11.4-3.3-11.4-10v-69.8c0-11.8-3.1-20.1-9.2-25.1-6.2-5-14.7-7.5-25.5-7.5s-13.4.8-18.5,2.3-9,3.1-11.9,4.8v103.4c-.9.4-2.3.8-4.2,1.2-1.9.5-3.8.7-5.8.7-7.8,0-11.7-3.3-11.7-10v-94.5c0-3.8.5-6.8,1.5-9.1,1-2.3,3.4-4.5,7.2-6.6,4.2-2.4,9.9-4.6,17.2-6.8,7.3-2.2,16.2-3.3,26.5-3.3,18.1,0,32,4,41.7,11.9s14.5,20.4,14.5,37.4v79h0Z"/>
    <g>
      <path d="M701.2,541.5v39.5s.2,0,.3-.2v-39.3h-.3ZM708.4,487.2h0q0,.1,0,0h0Z"/>
      <path d="M708.6,487.4h0c-9.2-7.1-21.6-10.6-37.2-10.6s-14.3.7-20.6,2.1-11.9,3.4-16.8,6c-2.7,1.5-4.7,3-6,4.7s-1.9,3.8-1.9,6.4.6,3.9,1.8,5.5c1.2,1.7,2.5,3.1,3.9,4.4,5.2-2.8,11.2-5.3,17.9-7.5s13.8-3.3,21.4-3.3,15.8,1.9,21.1,5.7h0c5.9,4.8,9,12.7,9.2,23.8l-38.3,3.8c-14.1,1.5-25.1,5.2-32.8,11.3-7.8,6.1-11.7,15.1-11.7,27s4.7,22.3,14,29,22.5,10,39.5,10,17.4-1,24.6-2.8c2.1-.6,4.1-1.1,5.9-1.8,1.7,3.1,5.1,4.6,10.2,4.6s4.2-.2,6.1-.7c1.9-.5,3.3-.9,4.2-1.2v-79.2c0-16.7-4.8-29.1-14.3-37h0v-.2ZM701.5,580.9s-.2,0-.3.2c-2.2,1.4-5.7,2.8-10.5,4.3-5,1.5-11.3,2.3-18.9,2.3s-18.6-1.8-23.9-5.6-7.9-9-7.9-15.9,2.3-11.4,6.8-14.8,11.5-5.5,20.9-6.4l33.4-3.5h.3v39.3h.1Z"/>
      <path d="M708.5,487.4h0,0Z"/>
    </g>
  </g>
</svg>